<?xml version="1.0" encoding="UTF-8"?>
<svg id="Logo" xmlns="http://www.w3.org/2000/svg" viewBox="0 0 558 208">
  <defs>
    <style>
      .cls-1 {
        fill: #08c4c4;
      }

      .cls-1, .cls-2, .cls-3, .cls-4 {
        stroke-width: 0px;
      }

      .cls-2 {
        fill: #fff;
      }

      .cls-3 {
        fill: #cc4009;
      }

      .cls-4 {
        fill: #fffffd;
      }
    </style>
  </defs>
  <g>
    <path class="cls-4" d="m89.51,36.06c-.23,0-.46.01-.69.01-36.02,1.02-65.24,31.12-67.73,69.06,2.65-37.93,32.11-68,68.42-69.07Z"/>
    <path class="cls-3" d="m540.88,108.8c-.01-.62-.03-1.23-.06-1.86-1.74-38.76-30.34-69.76-65.75-70.88-.45,0-.89-.01-1.35-.01H90.7c-.4,0-.8,0-1.2.01-36.31,1.07-65.78,31.14-68.42,69.07-.04.6-.07,1.21-.1,1.81-.02.62-.05,1.23-.06,1.86-.01.54-.02,1.08-.02,1.63,0,.63.01,1.27.02,1.89.79,39.82,31.06,71.96,68.65,73.03.64.01,1.27.02,1.91.02h381.65c.61,0,1.22-.01,1.82-.02,36.1-1.07,65.16-33.2,65.93-73.01.01-.62.02-1.25.02-1.89,0-.55-.01-1.1-.02-1.65ZM91.6,173.33v-.02c.64.01,1.27.02,1.91.02h-1.91Z"/>
    <path class="cls-1" d="m540.82,106.94c-1.61-38.79-30.06-69.83-65.28-70.87-.15,0-.31-.01-.47-.01,35.41,1.12,64,32.12,65.75,70.88Z"/>
    <path class="cls-3" d="m91.6,173.33h1.91c-.64,0-1.27-.01-1.91-.02v.02Z"/>
  </g>
  <g>
    <path class="cls-3" d="m472.42,182.32c-.6.01-1.19.02-1.79.02h-221.18V38.82h-5.03v7.62h4.48v128.23h-4.48v7.62H92.76c-.62,0-1.24-.01-1.86-.02-37.13-1.03-66.93-32.68-66.99-71.59,0,.04,0,.09,0,.13,0,39.12,30.16,70.95,67.75,71.99.63.01,1.25.02,1.88.02h376.51c.6,0,1.2-.01,1.8-.02,36.1-1.04,65.06-32.87,65.06-71.99,0-.04,0-.08,0-.12-.06,38.93-28.74,70.6-64.48,71.63Z"/>
    <path class="cls-4" d="m90.9,182.28c.62.01,1.24.02,1.86.02h151.67v-7.62H99.76c-.61,0-1.22,0-1.83-.02-36.55-.92-65.88-29.27-65.88-64.1s29.33-63.17,65.88-64.09c.61,0,1.22-.02,1.83-.02h144.66v-7.62H92.76c-.62,0-1.24.01-1.86.02-37.17,1.03-67,32.75-67,71.71,0,.04,0,.09,0,.13.07,38.91,29.86,70.56,66.99,71.59Z"/>
    <path class="cls-1" d="m374.92,123.1l-2.29.41c-2.15.37-3.69.81-4.63,1.34-1.59.89-2.38,2.28-2.38,4.16,0,1.67.48,2.88,1.45,3.62.97.75,2.15,1.12,3.53,1.12,2.2,0,4.23-.62,6.08-1.85,1.85-1.24,2.82-3.49,2.89-6.77v-3.64c-.64.39-1.3.7-1.95.94-.66.24-1.56.46-2.7.67Z"/>
    <path class="cls-1" d="m338.63,111.34c-1.61-1.35-3.6-2.02-5.97-2.02-2.58,0-4.59.71-6.01,2.14-1.42,1.43-2.32,3.36-2.68,5.79h17.35c-.18-2.6-1.08-4.57-2.68-5.92Z"/>
    <path class="cls-1" d="m366.4,54.82c6.35,0,11.5,5.15,11.5,11.5h0c0,6.35-5.15,11.5-11.5,11.5h-116.95v104.52h221.18c.6,0,1.19-.01,1.79-.02,35.74-1.03,64.43-32.7,64.48-71.63,0-.04,0-.08,0-.12,0-38.97-28.71-70.7-64.49-71.73-.6-.01-1.19-.02-1.79-.02h-221.18v16h116.95Zm-60.73,84.87h-10.81v-22.6h-20.25v22.6h-10.81v-50.63h10.81v19.3h20.25v-19.3h10.81v50.63Zm46.1-15.97h-28.05c.16,3.76,1.5,6.39,4.03,7.9,1.54.94,3.39,1.41,5.55,1.41,2.29,0,4.16-.57,5.59-1.72.78-.62,1.47-1.48,2.07-2.58h10.28c-.27,2.22-1.52,4.48-3.73,6.77-3.45,3.64-8.28,5.46-14.49,5.46-5.12,0-9.65-1.54-13.57-4.61s-5.88-8.07-5.88-14.99c0-6.49,1.77-11.46,5.3-14.92s8.13-5.19,13.77-5.19c3.35,0,6.37.58,9.06,1.75s4.91,3.02,6.66,5.54c1.58,2.22,2.6,4.8,3.07,7.74.27,1.72.38,4.2.33,7.43Zm94.82-34.49h10.07v17.86c1.46-2.18,3.14-3.69,5.05-4.55,1.91-.86,3.92-1.29,6.03-1.29,2.37,0,4.52.4,6.46,1.2,1.93.8,3.52,2.03,4.77,3.68,1.05,1.4,1.7,2.84,1.93,4.32.24,1.48.35,3.89.35,7.24v22h-10.28v-22.8c0-2.02-.35-3.65-1.05-4.88-.91-1.74-2.64-2.61-5.19-2.61s-4.65.87-6.01,2.6c-1.37,1.73-2.05,4.2-2.05,7.41v20.29h-10.07v-50.46Zm-29.43,13.36h5.37v-10.44h9.96v10.44h6.25v6.97h-6.25v19.79c0,1.53.2,2.49.6,2.87.4.38,1.62.57,3.67.57.31,0,.63,0,.97-.02.34-.01.68-.03,1.01-.05v7.32l-4.77.17c-4.76.16-8.01-.64-9.75-2.4-1.13-1.12-1.7-2.85-1.7-5.19v-23.05h-5.37v-6.97Zm-17.24-13.53h10.07v50.63h-10.07v-50.63Zm-10.31,23.94v17.17c0,1.19.02,2.63.07,4.33.07,1.28.27,2.15.6,2.61.33.46.82.84,1.48,1.13v1.44h-10.95c-.31-.76-.52-1.47-.64-2.13-.12-.66-.21-1.42-.28-2.27-1.4,1.47-3.01,2.71-4.83,3.74-2.18,1.21-4.64,1.82-7.39,1.82-3.51,0-6.4-.97-8.69-2.9-2.29-1.93-3.43-4.68-3.43-8.23,0-4.6,1.84-7.93,5.52-10,2.02-1.12,4.98-1.92,8.9-2.4l3.45-.41c1.87-.23,3.21-.52,4.02-.86,1.45-.59,2.17-1.52,2.17-2.78,0-1.53-.55-2.59-1.67-3.18-1.11-.58-2.74-.88-4.89-.88-2.41,0-4.12.57-5.12,1.72-.72.85-1.19,1.99-1.43,3.44h-9.72c.21-3.27,1.16-5.97,2.84-8.07,2.67-3.3,7.26-4.95,13.77-4.95,4.23,0,8,.81,11.28,2.44s4.93,4.69,4.93,9.21Z"/>
    <path class="cls-3" d="m109.02,106.76c1.41-.84,2.12-2.32,2.12-4.45,0-2.36-.93-3.92-2.8-4.67-1.61-.53-3.66-.79-6.16-.79h-11.33v11.16h12.66c2.26,0,4.1-.42,5.51-1.25Z"/>
    <path class="cls-3" d="m108.77,129c2.28-1.1,3.42-3.21,3.42-6.32,0-2.63-1.11-4.44-3.32-5.43-1.23-.55-2.97-.84-5.21-.86h-12.82v13.5h12.64c2.26,0,4.02-.3,5.27-.89Z"/>
    <path class="cls-3" d="m155.05,110.34c-1.61-1.35-3.6-2.02-5.97-2.02-2.58,0-4.59.71-6.01,2.14-1.42,1.43-2.32,3.36-2.68,5.79h17.35c-.18-2.6-1.08-4.57-2.68-5.92Z"/>
    <path class="cls-3" d="m216.73,122.1l-2.29.41c-2.15.37-3.69.81-4.63,1.34-1.59.89-2.38,2.28-2.38,4.16,0,1.67.48,2.88,1.45,3.62.97.75,2.15,1.12,3.53,1.12,2.2,0,4.23-.62,6.08-1.85,1.85-1.24,2.82-3.49,2.89-6.77v-3.64c-.64.39-1.3.7-1.95.94-.66.24-1.56.46-2.7.67Z"/>
    <path class="cls-3" d="m97.93,46.47c-36.55.92-65.88,29.27-65.88,64.09s29.33,63.18,65.88,64.1c.61,0,1.22.02,1.83.02h149.14V46.45H99.76c-.61,0-1.22,0-1.83.02Zm94.28,62.1h-6.25v19.79c0,1.53.2,2.49.6,2.87s1.62.57,3.67.57c.31,0,.63,0,.97-.02.34-.01.68-.03,1.01-.05v7.32l-4.77.17c-4.76.16-8.01-.64-9.75-2.4-1.13-1.12-1.7-2.85-1.7-5.19v-23.05h-5.37v-6.97h5.37v-10.44h9.96v10.44h6.25v6.97Zm41.37,30.13h-10.95c-.31-.76-.52-1.47-.64-2.13-.12-.66-.21-1.42-.28-2.27-1.4,1.47-3.01,2.71-4.83,3.74-2.18,1.21-4.64,1.82-7.39,1.82-3.51,0-6.4-.97-8.69-2.9-2.29-1.93-3.43-4.68-3.43-8.23,0-4.6,1.84-7.93,5.52-10,2.02-1.12,4.98-1.92,8.9-2.4l3.45-.41c1.87-.23,3.21-.52,4.02-.86,1.45-.59,2.17-1.52,2.17-2.78,0-1.53-.55-2.59-1.67-3.18-1.11-.58-2.74-.88-4.89-.88-2.41,0-4.12.57-5.12,1.72-.72.85-1.19,1.99-1.43,3.44h-9.72c.21-3.27,1.16-5.97,2.84-8.07,2.67-3.3,7.26-4.95,13.77-4.95,4.23,0,8,.81,11.28,2.44s4.93,4.69,4.93,9.21v17.17c0,1.19.02,2.63.07,4.33.07,1.28.27,2.15.6,2.61.33.46.82.84,1.48,1.13v1.44Zm-87.67-72.37c0-6.35,5.15-11.5,11.5-11.5h87.5v23h-87.5c-6.35,0-11.5-5.15-11.5-11.5h0Zm-10.6,39.12c3.54-3.46,8.13-5.19,13.77-5.19,3.35,0,6.37.58,9.06,1.75,2.69,1.17,4.91,3.02,6.66,5.54,1.58,2.22,2.6,4.8,3.07,7.74.27,1.72.38,4.2.33,7.43h-28.05c.16,3.76,1.5,6.39,4.03,7.9,1.54.94,3.39,1.41,5.55,1.41,2.29,0,4.16-.57,5.59-1.72.78-.62,1.47-1.48,2.07-2.58h10.28c-.27,2.22-1.52,4.48-3.73,6.77-3.45,3.64-8.28,5.46-14.49,5.46-5.13,0-9.65-1.54-13.57-4.61s-5.88-8.07-5.88-14.99c0-6.49,1.77-11.46,5.31-14.92Zm-16.17-11.99c1.59,2.15,2.39,4.73,2.39,7.73s-.8,5.58-2.41,7.45c-.9,1.05-2.22,2.01-3.97,2.88,2.66.94,4.66,2.43,6.02,4.47,1.35,2.04,2.03,4.51,2.03,7.42s-.77,5.69-2.32,8.07c-.98,1.58-2.21,2.91-3.69,3.98-1.66,1.24-3.62,2.08-5.88,2.54-2.26.46-4.71.69-7.36.69h-23.46v-50.63h25.17c6.35.09,10.85,1.89,13.5,5.39Z"/>
    <path class="cls-2" d="m157.4,77.82h87.5v-23h-87.5c-6.35,0-11.5,5.15-11.5,11.5h0c0,6.35,5.15,11.5,11.5,11.5Z"/>
    <path class="cls-2" d="m377.9,66.32h0c0-6.35-5.15-11.5-11.5-11.5h-116.95v23h116.95c6.35,0,11.5-5.15,11.5-11.5Z"/>
    <path class="cls-4" d="m80.46,138.69h23.46c2.65,0,5.1-.23,7.36-.69,2.26-.46,4.22-1.3,5.88-2.54,1.47-1.08,2.71-2.4,3.69-3.98,1.55-2.38,2.32-5.07,2.32-8.07s-.68-5.38-2.03-7.42c-1.35-2.04-3.36-3.53-6.02-4.47,1.75-.87,3.07-1.83,3.97-2.88,1.61-1.88,2.41-4.36,2.41-7.45s-.8-5.58-2.39-7.73c-2.65-3.5-7.15-5.3-13.5-5.39h-25.17v50.63Zm10.39-41.84h11.33c2.5,0,4.55.26,6.16.79,1.86.75,2.8,2.31,2.8,4.67,0,2.13-.71,3.61-2.12,4.45-1.41.84-3.25,1.25-5.51,1.25h-12.66v-11.16Zm0,19.54h12.82c2.24.02,3.97.31,5.21.86,2.21.98,3.32,2.79,3.32,5.43,0,3.12-1.14,5.22-3.42,6.32-1.26.6-3.02.89-5.27.89h-12.64v-13.5Z"/>
    <path class="cls-4" d="m135.87,135.35c3.92,3.07,8.44,4.61,13.57,4.61,6.21,0,11.04-1.82,14.49-5.46,2.22-2.29,3.46-4.54,3.73-6.77h-10.28c-.6,1.1-1.29,1.96-2.07,2.58-1.43,1.15-3.3,1.72-5.59,1.72-2.16,0-4.01-.47-5.55-1.41-2.53-1.51-3.87-4.14-4.03-7.9h28.05c.05-3.23-.06-5.71-.33-7.43-.47-2.94-1.49-5.52-3.07-7.74-1.75-2.52-3.97-4.37-6.66-5.54-2.69-1.17-5.71-1.75-9.06-1.75-5.64,0-10.24,1.73-13.77,5.19-3.54,3.46-5.31,8.43-5.31,14.92,0,6.92,1.96,11.92,5.88,14.99Zm7.19-24.89c1.42-1.43,3.43-2.14,6.01-2.14,2.38,0,4.37.67,5.97,2.02s2.5,3.32,2.68,5.92h-17.35c.37-2.44,1.26-4.37,2.68-5.79Z"/>
    <path class="cls-4" d="m185.95,91.15h-9.96v10.44h-5.37v6.97h5.37v23.05c0,2.34.57,4.06,1.7,5.19,1.74,1.76,4.99,2.56,9.75,2.4l4.77-.17v-7.32c-.33.02-.67.04-1.01.05-.34.01-.67.02-.97.02-2.05,0-3.27-.19-3.67-.57s-.6-1.33-.6-2.87v-19.79h6.25v-6.97h-6.25v-10.44Z"/>
    <path class="cls-4" d="m232.09,136.11c-.33-.46-.53-1.33-.6-2.61-.05-1.69-.07-3.14-.07-4.33v-17.17c0-4.51-1.64-7.58-4.93-9.21s-7.05-2.44-11.28-2.44c-6.51,0-11.1,1.65-13.77,4.95-1.68,2.11-2.63,4.8-2.84,8.07h9.72c.24-1.44.72-2.59,1.43-3.44,1-1.14,2.71-1.72,5.12-1.72,2.15,0,3.78.29,4.89.88,1.11.58,1.67,1.64,1.67,3.18,0,1.26-.72,2.19-2.17,2.78-.81.34-2.15.63-4.02.86l-3.45.41c-3.92.48-6.88,1.28-8.9,2.4-3.68,2.06-5.52,5.39-5.52,10,0,3.55,1.14,6.29,3.43,8.23,2.29,1.94,5.18,2.9,8.69,2.9,2.75,0,5.21-.61,7.39-1.82,1.82-1.03,3.44-2.28,4.83-3.74.07.85.16,1.6.28,2.27.12.66.33,1.37.64,2.13h10.95v-1.44c-.66-.3-1.15-.67-1.48-1.13Zm-10.71-11.99c-.07,3.27-1.03,5.53-2.89,6.77-1.85,1.24-3.88,1.85-6.08,1.85-1.39,0-2.57-.37-3.53-1.12-.97-.74-1.45-1.95-1.45-3.62,0-1.88.79-3.26,2.38-4.16.94-.53,2.48-.97,4.63-1.34l2.29-.41c1.15-.21,2.05-.43,2.7-.67.66-.24,1.31-.55,1.95-.94v3.64Z"/>
    <polygon class="cls-2" points="294.86 108.36 274.61 108.36 274.61 89.06 263.8 89.06 263.8 139.69 274.61 139.69 274.61 117.09 294.86 117.09 294.86 139.69 305.67 139.69 305.67 89.06 294.86 89.06 294.86 108.36"/>
    <path class="cls-2" d="m348.37,108.54c-1.75-2.52-3.97-4.37-6.66-5.54s-5.71-1.75-9.06-1.75c-5.64,0-10.23,1.73-13.77,5.19s-5.3,8.43-5.3,14.92c0,6.92,1.96,11.92,5.88,14.99s8.44,4.61,13.57,4.61c6.21,0,11.04-1.82,14.49-5.46,2.22-2.29,3.46-4.54,3.73-6.77h-10.28c-.6,1.1-1.29,1.96-2.07,2.58-1.43,1.15-3.3,1.72-5.59,1.72-2.16,0-4.01-.47-5.55-1.41-2.53-1.51-3.87-4.14-4.03-7.9h28.05c.05-3.23-.06-5.71-.33-7.43-.47-2.94-1.49-5.52-3.07-7.74Zm-24.4,8.71c.37-2.44,1.26-4.37,2.68-5.79,1.42-1.43,3.43-2.14,6.01-2.14,2.38,0,4.37.67,5.97,2.02s2.5,3.32,2.68,5.92h-17.35Z"/>
    <path class="cls-2" d="m359.62,106.3c-1.68,2.11-2.63,4.8-2.84,8.07h9.72c.24-1.44.72-2.59,1.43-3.44,1-1.14,2.71-1.72,5.12-1.72,2.15,0,3.78.29,4.89.88,1.11.58,1.67,1.64,1.67,3.18,0,1.26-.72,2.19-2.17,2.78-.81.34-2.15.63-4.02.86l-3.45.41c-3.92.48-6.88,1.28-8.9,2.4-3.68,2.06-5.52,5.39-5.52,10,0,3.55,1.14,6.29,3.43,8.23,2.29,1.94,5.18,2.9,8.69,2.9,2.75,0,5.21-.61,7.39-1.82,1.82-1.03,3.44-2.28,4.83-3.74.07.85.16,1.6.28,2.27.12.66.33,1.37.64,2.13h10.95v-1.44c-.66-.3-1.15-.67-1.48-1.13-.33-.46-.53-1.33-.6-2.61-.05-1.69-.07-3.14-.07-4.33v-17.17c0-4.51-1.64-7.58-4.93-9.21s-7.05-2.44-11.28-2.44c-6.51,0-11.1,1.65-13.77,4.95Zm19.95,18.82c-.07,3.27-1.03,5.53-2.89,6.77-1.85,1.24-3.88,1.85-6.08,1.85-1.39,0-2.57-.37-3.53-1.12-.97-.74-1.45-1.95-1.45-3.62,0-1.88.79-3.26,2.38-4.16.94-.53,2.48-.97,4.63-1.34l2.29-.41c1.15-.21,2.05-.43,2.7-.67.66-.24,1.31-.55,1.95-.94v3.64Z"/>
    <rect class="cls-2" x="399.92" y="89.06" width="10.07" height="50.63"/>
    <path class="cls-2" d="m422.53,132.61c0,2.34.56,4.06,1.7,5.19,1.74,1.76,4.99,2.56,9.75,2.4l4.77-.17v-7.32c-.33.02-.67.04-1.01.05-.34.01-.67.02-.97.02-2.05,0-3.27-.19-3.67-.57-.4-.38-.6-1.33-.6-2.87v-19.79h6.25v-6.97h-6.25v-10.44h-9.96v10.44h-5.37v6.97h5.37v23.05Z"/>
    <path class="cls-2" d="m456.65,119.4c0-3.21.68-5.68,2.05-7.41,1.37-1.73,3.37-2.6,6.01-2.6s4.28.87,5.19,2.61c.7,1.24,1.05,2.87,1.05,4.88v22.8h10.28v-22c0-3.35-.12-5.76-.35-7.24-.23-1.48-.88-2.92-1.93-4.32-1.24-1.65-2.83-2.88-4.77-3.68-1.93-.8-4.09-1.2-6.46-1.2-2.11,0-4.12.43-6.03,1.29-1.91.86-3.59,2.38-5.05,4.55v-17.86h-10.07v50.46h10.07v-20.29Z"/>
  </g>
</svg>